<svg width="34" height="30" viewBox="0 0 34 30" fill="none" xmlns="http://www.w3.org/2000/svg">
<path fill-rule="evenodd" clip-rule="evenodd" d="M12.7051 9.55913C12.7051 7.06345 14.7283 5.0403 17.2239 5.0403C19.7196 5.0403 21.7428 7.06345 21.7428 9.55913V11.2825H12.7051V9.55913ZM10.7051 11.2825V9.55913C10.7051 5.95888 13.6237 3.0403 17.2239 3.0403C20.8242 3.0403 23.7428 5.95888 23.7428 9.55913V11.2825H26.2616C27.3662 11.2825 28.2616 12.1779 28.2616 13.2825V23.7668C28.2616 24.8714 27.3662 25.7668 26.2616 25.7668H8.18628C7.08171 25.7668 6.18628 24.8714 6.18628 23.7668V13.2825C6.18628 12.1779 7.08171 11.2825 8.18628 11.2825H10.7051ZM17.2239 16.3176C17.7762 16.3176 18.2239 16.7653 18.2239 17.3176V19.7317C18.2239 20.284 17.7762 20.7317 17.2239 20.7317C16.6717 20.7317 16.2239 20.284 16.2239 19.7317V17.3176C16.2239 16.7653 16.6717 16.3176 17.2239 16.3176Z" fill="black" fill-opacity="0.5"/>
</svg>
