<svg width="26" height="18" viewBox="0 0 26 18" fill="none" xmlns="http://www.w3.org/2000/svg">
<path fill-rule="evenodd" clip-rule="evenodd" d="M0.324275 2.06683L10.6769 11.1238C11.8079 12.1132 13.4965 12.1132 14.6276 11.1238L24.9802 2.06683C25.0383 2.25424 25.0696 2.45344 25.0696 2.65995V15.5583C25.0696 16.6629 24.1742 17.5583 23.0696 17.5583H2.23486C1.13029 17.5583 0.234863 16.6629 0.234863 15.5583V2.65995C0.234863 2.45344 0.266162 2.25424 0.324275 2.06683ZM1.80623 0.705985C1.94432 0.675833 2.08774 0.659946 2.23486 0.659946H23.0696C23.2167 0.659946 23.3602 0.675833 23.4982 0.705984L13.3107 9.61851C12.9337 9.94833 12.3708 9.94833 11.9938 9.61851L1.80623 0.705985Z" fill="black" fill-opacity="0.5"/>
</svg>
