<svg width="31" height="27" viewBox="0 0 31 27" fill="none" xmlns="http://www.w3.org/2000/svg">
<path d="M15.3623 0.787079C7.16856 0.787079 0.518555 6.60479 0.518555 13.773C0.518555 20.9413 7.16856 26.759 15.3623 26.759C23.5561 26.759 30.2061 20.9413 30.2061 13.773C30.2061 6.60479 23.5561 0.787079 15.3623 0.787079ZM15.3623 5.98146C18.2272 5.98146 20.5576 8.02026 20.5576 10.5265C20.5576 13.0328 18.2272 15.0716 15.3623 15.0716C12.4975 15.0716 10.167 13.0328 10.167 10.5265C10.167 8.02026 12.4975 5.98146 15.3623 5.98146ZM15.3623 24.1618C12.349 24.1618 8.78653 23.097 6.24825 20.4219C8.75684 18.7077 11.9186 17.6688 15.3623 17.6688C18.8061 17.6688 21.9678 18.7077 24.4764 20.4219C21.9381 23.097 18.3756 24.1618 15.3623 24.1618Z" fill="black"/>
</svg>
